# xmcd CD database file
#
# Track frame offsets:
#        150
#        23757
#        36422
#        46650
#        57740
#        70637
#        85365
#        100002
#        114840
#        125255
#        138365
#        150770
#        173097
#        197747
#        228592
#        254242
#
# Disc length: 3542 seconds
#
# Revision: 0
# Processed by: cddbd v1.5.2PL0 Copyright (c) Steve Scherf et al.
# Submitted via: CUERipper 2.1.6
#
DISCID=d00dd410
DTITLE=Various Artist - Blues In The Night: The Johnny Mercer Songbook
DYEAR=1900
DGENRE=
TTITLE0=Louis Armstrong - Blues In The Night (my mama done tol' me)
TTITLE1=Billie Holiday - I Thought About You
TTITLE2=Anita O'Day - Come Rain Or Come Shine
TTITLE3=Mel Tormé - Hit The Road To Dreamland
TTITLE4=Margaret Whiting - Dearly Beloved
TTITLE5=Buddy Rich - Goody Goody
TTITLE6=Ella Fitzgerald - Skylark
TTITLE7=Billy Eckstine - Laura
TTITLE8=Sarah Vaughan - Day In, Day Out
TTITLE9=Woody Herman - Early Autumn
TTITLE10=Dinah Washington - I Remember You
TTITLE11=Helen Merrill - Any Place I Hang My Hat Is Home
TTITLE12=Joe Williams - Too Marvelous For Words
TTITLE13=Dee Dee Bridgewater - Autumn Leaves
TTITLE14=Billie Holiday - One For My Baby (and one more for the road)
TTITLE15=Bing Crosby and Buddy Bregman - Jeepers Creepers
EXTD=
EXTT0=
EXTT1=
EXTT2=
EXTT3=
EXTT4=
EXTT5=
EXTT6=
EXTT7=
EXTT8=
EXTT9=
EXTT10=
EXTT11=
EXTT12=
EXTT13=
EXTT14=
EXTT15=
PLAYORDER=
